<mxfile host="app.diagrams.net" modified="2024-02-06T04:18:35.009Z" agent="Mozilla/5.0 (X11; Ubuntu; Linux x86_64; rv:108.0) Gecko/20100101 Firefox/108.0" version="23.1.1" etag="yO6MOSNBR7NHl5Bd1Mky" type="github">
  <diagram name="Page-1" id="UH2xfdFQ_mK3PdwWXoB4">
    <mxGraphModel>
      <root>
        <mxCell id="0" />
        <mxCell id="1" parent="0" />
      </root>
    </mxGraphModel>
  </diagram>
</mxfile>
